<?xml version="1.0" encoding="UTF-8" standalone="no"?>
<!-- Created with Inkscape (http://www.inkscape.org/) -->

<svg
   xmlns:dc="http://purl.org/dc/elements/1.1/"
   xmlns:cc="http://creativecommons.org/ns#"
   xmlns:rdf="http://www.w3.org/1999/02/22-rdf-syntax-ns#"
   xmlns:svg="http://www.w3.org/2000/svg"
   xmlns="http://www.w3.org/2000/svg"
   xmlns:sodipodi="http://sodipodi.sourceforge.net/DTD/sodipodi-0.dtd"
   xmlns:inkscape="http://www.inkscape.org/namespaces/inkscape"
   width="210mm"
   height="297mm"
   id="svg2"
   version="1.1"
   inkscape:version="0.48.2 r9819"
   sodipodi:docname="fachobuk.svg">
  <defs
     id="defs4">
 <style
   id="style3786"
   type="text/css">
   
    .fil0 {fill:#0A0B0C}
    .fil1 {fill:#CCFF66;fill-rule:nonzero}
   
  </style>

  
 <style
   id="style3861"
   type="text/css">
   
    .fil1 {fill:#0A0B0C}
    .fil0 {fill:#1E2124}
    .fil3 {fill:#CCFF66}
    .fil4 {fill:#FFCC00}
    .fil2 {fill:white}
   
  </style>

  
 <style
   id="style3992"
   type="text/css">
   
    .fil1 {fill:#0A0B0C}
    .fil0 {fill:#1E2124}
    .fil2 {fill:#FFCC00;fill-rule:nonzero}
   
  </style>

  
 <style
   id="style4087"
   type="text/css">
   
    .str0 {stroke:white;stroke-width:0.000386873}
    .fil1 {fill:#34528C}
    .fil4 {fill:#556EA6}
    .fil5 {fill:#748BBD}
    .fil6 {fill:#95AED3}
    .fil3 {fill:#DEE1E6}
    .fil0 {fill:#EDF1FA}
    .fil2 {fill:white}
   
  </style>

  
  
  
  
 
   
   
   
   
   
   
   
   
   
  
 <style
   id="style4331"
   type="text/css">
   
    .fil0 {fill:#0A0B0C}
   
  </style>

  </defs>
  <sodipodi:namedview
     id="base"
     pagecolor="#ffffff"
     bordercolor="#666666"
     borderopacity="1.0"
     inkscape:pageopacity="0.0"
     inkscape:pageshadow="2"
     inkscape:zoom="0.34491508"
     inkscape:cx="1458.1512"
     inkscape:cy="211.64129"
     inkscape:document-units="px"
     inkscape:current-layer="text4053"
     showgrid="false"
     inkscape:window-width="1920"
     inkscape:window-height="1033"
     inkscape:window-x="-4"
     inkscape:window-y="-4"
     inkscape:window-maximized="1" />
  <metadata
     id="metadata7">
    <rdf:RDF>
      <cc:Work
         rdf:about="">
        <dc:format>image/svg+xml</dc:format>
        <dc:type
           rdf:resource="http://purl.org/dc/dcmitype/StillImage" />
        <dc:title></dc:title>
      </cc:Work>
    </rdf:RDF>
  </metadata>
  <g
     inkscape:label="Capa 1"
     inkscape:groupmode="layer"
     id="layer1">
    <g
       style="font-size:58.46593475px;font-style:normal;font-variant:normal;font-weight:bold;font-stretch:normal;text-align:center;line-height:125%;letter-spacing:0px;word-spacing:0px;text-anchor:middle;fill:#000000;fill-opacity:1;stroke:none;font-family:Klavika Bd;-inkscape-font-specification:Klavika Bd Bold"
       id="text4053">
      <g
         style="fill-rule:evenodd"
         id="g4342"
         transform="matrix(78.01176,0,0,78.01176,13.429331,23.305283)">
        <g
           id="Capa_x0020_1">
  <metadata
   id="CorelCorpID_0Corel-Layer" />

  <path
   id="path4335"
   d="M 4.84793,1.6813 C 4.84568,1.707135 4.84286,1.729405 4.83908,1.747226 4.83531,1.765041 4.83091,1.77974 4.825449,1.791322 4.819949,1.80335 4.813869,1.811809 4.806761,1.816712 4.800061,1.822052 4.791809,1.824732 4.78335,1.824732 l -0.58175,0 C 4.144478,1.727036 4.04184,1.659181 3.922806,1.650306 L 3.930266,1.564478 C 4.049293,1.492786 4.128949,1.362319 4.128949,1.213291 c 0,-0.123537 -0.054738,-0.23432001 -0.141263,-0.30943901 l 0.062662,-0.720949 c 7.369e-4,-0.008464 0.0041,-0.016479 0.010479,-0.0231643 0.00641,-0.007122 0.016264,-0.0129136 0.02953,-0.0169244 0.013306,-0.004456 0.031431,-0.008015 0.053933,-0.0106895 0.022505,-0.002673 0.050237,-0.004011 0.083198,-0.004011 0.033854,0 0.06135,0.001338 0.082948,0.004011 0.021593,0.002674 0.038655,0.006233 0.051182,0.0106895 0.013015,0.004011 0.021868,0.009802 0.02659,0.0169244 0.00521,0.006685 0.00763,0.0147004 0.0069,0.0231643 L 4.277031,1.541443 l 0.530943,0 c 0.00846,0 0.016247,0.00267 0.022096,0.00713 0.00625,0.0049 0.010903,0.012919 0.014427,0.023608 0.00348,0.011137 0.00537,0.02539 0.00604,0.043207 6.806e-4,0.017817 -3.279e-4,0.03964 -0.00261,0.065919 z m 0.502748,0.098887 0,0 c -7.75e-4,0.00891 -0.00366,0.016482 -0.00958,0.023163 -0.00589,0.00623 -0.0153,0.012024 -0.028119,0.016035 -0.013304,0.00445 -0.030057,0.00757 -0.051186,0.0098 -0.021129,0.00223 -0.047524,0.00356 -0.08004,0.00356 -0.032072,0 -0.058681,-0.00133 -0.078975,-0.00356 C 5.082038,1.826955 5.065379,1.823835 5.053298,1.819385 5.040727,1.815375 5.032323,1.809585 5.027964,1.80335 5.023204,1.79667 5.021184,1.789093 5.021954,1.780187 l 0.10093,-1.16122 c 7.734e-4,-0.008909 0.0041,-0.0164806 0.00999,-0.0227205 0.00548,-0.006677 0.014893,-0.0124698 0.028199,-0.0169211 0.012895,-0.004902 0.030134,-0.008462 0.0513,-0.0111367 0.02072,-0.002671 0.047562,-0.004008 0.079633,-0.004008 0.032516,0 0.058681,0.001336 0.079384,0.004008 0.020702,0.002674 0.036873,0.006235 0.049362,0.0111367 0.012086,0.004451 0.020492,0.0102441 0.025256,0.0169211 0.0048,0.00624 0.00637,0.0138111 0.0056,0.0227205 l -0.10093,1.16122 z m 0.160366,-1.55809 0,0 C 5.505274,0.2884649 5.487964,0.333896 5.458585,0.359284 5.429656,0.3846756 5.378239,0.397147 5.30519,0.397147 5.231246,0.397147 5.182851,0.3851194 5.159147,0.3606237 5.135445,0.3361247 5.126318,0.2924723 5.131854,0.2287767 5.137584,0.1628543 5.154937,0.1169757 5.183906,0.0911407 5.212429,0.0653053 5.263886,0.0523868 5.337825,0.0523868 c 0.073052,0 0.121852,0.0124747 0.145519,0.0374192 0.024113,0.0249428 0.033198,0.069039 0.0277,0.13229 z m 1.39129,0.960779 0,0 C 6.893354,1.286213 6.874121,1.379304 6.844206,1.462154 6.814327,1.544557 6.775695,1.614934 6.727861,1.673282 6.680027,1.731635 6.624003,1.776622 6.558935,1.807801 6.493867,1.838984 6.422135,1.85457 6.342851,1.85457 6.303653,1.85457 6.26744,1.85101 6.234242,1.843435 6.201014,1.836305 6.169542,1.824283 6.140242,1.807801 6.110492,1.791322 6.082025,1.770385 6.05439,1.744997 6.026268,1.720056 5.998207,1.68932 5.970122,1.653688 L 5.959126,1.780187 c -8.512e-4,0.0098 -0.00378,0.017817 -0.00926,0.024497 -0.00544,0.00623 -0.013475,0.011579 -0.024999,0.016034 -0.011077,0.00446 -0.026047,0.00757 -0.044466,0.00935 -0.018415,0.00178 -0.040766,0.00267 -0.0666,0.00267 -0.02717,0 -0.049362,-8.909e-4 -0.067027,-0.00267 C 5.729113,1.828288 5.714684,1.825168 5.704383,1.820718 5.694081,1.816268 5.686968,1.810918 5.683055,1.804684 5.679185,1.798004 5.677655,1.789982 5.678505,1.780187 L 5.827634,0.064417 C 5.828409,0.055506 5.831744,0.0479364 5.837704,0.0408073 5.843224,0.0336815 5.852635,0.0278921 5.865941,0.0234358 5.878836,0.0185357 5.896074,0.0149736 5.917243,0.0123024 5.937961,0.00962794 5.964804,0.0082932 5.996875,0.0082932 c 0.032514,0 0.058679,0.00133474 0.079384,0.0040092 0.0207,0.0026711 0.036871,0.0062332 0.049362,0.0111334 0.012084,0.0044563 0.020492,0.0102457 0.025214,0.0173715 0.00472,0.0071291 0.00629,0.0146987 0.00552,0.0236097 L 6.100451,0.707606 C 6.132849,0.6782052 6.164457,0.6528186 6.196115,0.6318817 6.227334,0.6109464 6.258202,0.594022 6.289206,0.5806597 6.319807,0.5668519 6.351391,0.5570533 6.383074,0.5512655 c 0.031722,-0.006238 0.064952,-0.009356 0.100142,-0.009356 0.085967,0 0.157506,0.0173699 0.214657,0.0516692 0.057149,0.0342976 0.101676,0.0806212 0.134463,0.138971 0.032792,0.0583495 0.054486,0.126503 0.065119,0.204004 0.010597,0.07795 0.012384,0.159906 0.00487,0.246321 z m -0.342766,0.023156 0,0 C 6.563868,1.156595 6.564448,1.10893 6.560898,1.062608 6.5577629,1.0167299 6.5484065,0.9757503 6.5332407,0.94012 6.518075,0.904486 6.4969443,0.8759778 6.4694065,0.8545987 6.4423125,0.833218 6.4062728,0.8225284 6.3621735,0.8225284 c -0.021825,0 -0.043475,0.003117 -0.064954,0.009353 -0.021435,0.005791 -0.043748,0.016479 -0.067294,0.0311793 -0.02355,0.0146954 -0.047932,0.0338521 -0.073588,0.0574569 -0.025178,0.0231643 -0.052676,0.0525617 -0.081976,0.0873065 l -0.033564,0.38618 c 0.041173,0.059244 0.08136,0.104226 0.121005,0.134961 0.039607,0.031183 0.082385,0.046325 0.128263,0.046325 0.042761,0 0.079768,-0.010691 0.111064,-0.032516 0.031742,-0.021823 0.058676,-0.049887 0.081297,-0.084627 0.022618,-0.034745 0.040317,-0.074388 0.052653,-0.118933 0.012738,-0.044096 0.020621,-0.088636 0.024489,-0.133183 z m 1.39282,-0.481495 0,0 c -0.00275,0.0316232 -0.00584,0.0570114 -0.00937,0.0770541 -0.00353,0.0200427 -0.00755,0.0356324 -0.012122,0.0472161 -0.00409,0.0111334 -0.00968,0.0191517 -0.015378,0.0231593 -0.00618,0.004455 -0.013496,0.006687 -0.022404,0.006687 -0.00668,0 -0.014583,-0.001341 -0.022775,-0.004456 C 7.861709,0.8710775 7.852173,0.8679595 7.841793,0.8643955 7.830966,0.8608355 7.819212,0.8577155 7.806565,0.8545985 7.793918,0.8514765 7.779779,0.8501425 7.763744,0.8501425 c -0.018259,0 -0.036831,0.003564 -0.05571,0.0106929 C 7.689109,0.8684064 7.669394,0.8799871 7.648439,0.8955768 7.62749,0.9111648 7.605179,0.9321017 7.581516,0.958381 7.557888,0.9842164 7.532347,1.0167305 7.504556,1.0545935 L 7.44149,1.7801875 c -7.75e-4,0.00891 -0.00366,0.016482 -0.00958,0.023163 -0.00589,0.00623 -0.015298,0.012024 -0.028119,0.016035 -0.013306,0.00445 -0.030057,0.00757 -0.051186,0.0098 -0.021129,0.00223 -0.047524,0.00356 -0.08004,0.00356 -0.032072,0 -0.058679,-0.00133 -0.078975,-0.00356 -0.020741,-0.00223 -0.037399,-0.00535 -0.049482,-0.0098 -0.012571,-0.00401 -0.020973,-0.0098 -0.025332,-0.016035 -0.00477,-0.00668 -0.00678,-0.014257 -0.00601,-0.023163 L 7.213928,0.61629746 c 7.336e-4,-0.008462 0.00366,-0.0164773 0.00865,-0.0227138 0.00503,-0.00668 0.013072,-0.0120259 0.02504,-0.0164806 0.011521,-0.004456 0.026491,-0.007575 0.044502,-0.009799 0.018012,-0.002231 0.04036,-0.003118 0.067532,-0.003118 0.027617,0 0.050699,8.8762e-4 0.068769,0.003118 0.018069,0.002224 0.032047,0.005342 0.041461,0.009799 0.00986,0.004455 0.016522,0.0098 0.019948,0.0164806 0.00391,0.006237 0.00544,0.0142516 0.00471,0.0227138 l -0.012586,0.144767 c 0.034048,-0.0432086 0.066136,-0.0792881 0.095297,-0.107349 0.029651,-0.0285065 0.057421,-0.0507766 0.082906,-0.0672555 0.02593,-0.0164839 0.051432,-0.028066 0.076069,-0.0347464 0.025079,-0.00668 0.049846,-0.009799 0.073899,-0.009799 0.01158,0 0.023532,8.9259e-4 0.036333,0.002226 0.013285,8.9259e-4 0.026455,0.003117 0.039993,0.006238 0.013536,0.003117 0.025696,0.00668 0.035594,0.0106879 0.01038,0.003565 0.017567,0.008018 0.022118,0.0120276 0.00407,0.004455 0.0072,0.009353 0.00897,0.0147004 0.0018,0.004898 0.00296,0.0120259 0.00393,0.0213758 0.00101,0.008911 0.00114,0.0227171 4.471e-4,0.0409813 -6.955e-4,0.0182641 -0.00242,0.0432053 -0.00513,0.0743896 z m 1.20938,0.440073 0,0 C 9.158318,1.204252 9.146817,1.234098 9.127335,1.253253 9.107855,1.272401 9.082543,1.281756 9.051362,1.281756 l -0.708666,0 c -0.00434,0.049887 -0.00246,0.094878 0.00564,0.134963 0.0085,0.040534 0.024229,0.074832 0.04714,0.10334 0.023394,0.028061 0.054461,0.049887 0.093717,0.064588 0.039256,0.014697 0.087148,0.022272 0.143717,0.022272 0.057457,0 0.10818,-0.00445 0.152083,-0.012475 C 8.829381,1.585974 8.868014,1.577074 8.900531,1.56683 8.93301,1.55703 8.960101,1.547675 8.981732,1.539658 9.003402,1.531198 9.020676,1.527183 9.033595,1.527183 c 0.00802,0 0.014583,0.00134 0.019211,0.00445 0.00507,0.00312 0.00906,0.00846 0.01193,0.016482 0.00246,0.00757 0.00416,0.01871 0.00423,0.03341 9.6e-5,0.014252 -0.00101,0.032069 -0.00291,0.053891 -0.00166,0.019157 -0.00354,0.035634 -0.00559,0.048996 -0.00205,0.013364 -0.0044,0.024946 -0.00703,0.034745 -0.00215,0.00935 -0.00552,0.01737 -0.00966,0.024055 C 9.039636,1.749892 9.034636,1.756129 9.028345,1.761917 9.022015,1.768157 9.006131,1.776616 8.979852,1.786862 8.953573,1.797108 8.920612,1.807353 8.880523,1.817597 8.840471,1.827397 8.795157,1.836303 8.744205,1.843429 8.692769,1.850999 8.638562,1.854564 8.581101,1.854564 8.477764,1.854564 8.388019,1.841647 8.312355,1.815368 8.237099,1.789534 8.175511,1.749893 8.127556,1.696887 8.08005,1.64388 8.047145,1.576621 8.028316,1.495998 8.009974,1.414931 8.005306,1.320059 8.014752,1.211375 8.023732,1.108037 8.045221,1.014499 8.079596,0.93164897 c 0.033965,-0.083294 0.07928,-0.153669 0.135534,-0.211575 0.056703,-0.0579073 0.122894,-0.102002 0.199021,-0.132289 0.076163,-0.0307355 0.160332,-0.0458797 0.252535,-0.0458797 0.097547,0 0.179603,0.0142533 0.246126,0.0432053 0.066562,0.0285065 0.120092,0.0685952 0.159775,0.119373 0.040128,0.0507815 0.067421,0.110911 0.082275,0.180843 0.014896,0.0694845 0.018561,0.14520703 0.011476,0.22671803 l -0.00457,0.05256 z m -0.31031,-0.093982 0,0 C 8.862143,0.978423 8.850188,0.905822 8.815119,0.85326 8.780043,0.8006983 8.721303,0.774419 8.638454,0.774419 8.596585,0.774419 8.55985,0.781992 8.52776,0.7975833 8.495224,0.813173 8.467978,0.8345521 8.445206,0.8608346 8.422393,0.8875576 8.404091,0.9187353 8.389819,0.9548165 8.375995,0.9908943 8.366388,1.0296499 8.361046,1.0706275 l 0.490412,0 z m -3.97813,2.80127 0,0 c -0.0065,0.016676 -0.01426,0.030321 -0.022763,0.040933 -0.00896,0.010105 -0.022297,0.018191 -0.040468,0.02375 -0.01863,0.00505 -0.042689,0.00859 -0.073643,0.010105 -0.030959,0.00152 -0.070967,0.00253 -0.119985,0.00253 -0.039413,0 -0.073224,-5.051e-4 -0.101482,-0.00101 C 4.486732,3.9477009 4.463069,3.946686 4.44354,3.944666 4.424009,3.942646 4.408101,3.939616 4.396326,3.935566 4.384042,3.931526 4.374333,3.926976 4.366268,3.920917 4.358708,3.914847 4.352755,3.907778 4.348954,3.899187 4.345104,3.891097 4.341994,3.880491 4.339094,3.867352 L 3.961673,2.350382 C 4.1194459,2.320809 4.2403279,2.186409 4.249214,2.022285 c 0.010337,0.00181 0.019112,0.00405 0.026311,0.0067 0.0132,0.00505 0.022191,0.012125 0.02687,0.022234 0.00472,0.0096 0.00868,0.022234 0.012458,0.036888 l 0.33799,1.47757 0.00101,0 0.58559,-1.46999 C 5.244973,2.078509 5.250667,2.065369 5.257653,2.054757 5.264603,2.044649 5.275449,2.036057 5.290081,2.0305 5.304755,2.02443 5.325826,2.020395 5.352787,2.018371 c 0.02645,-0.00202 0.063427,-0.00303 0.109409,-0.00303 0.045481,0 0.080722,0.00152 0.105725,0.00455 0.025002,0.00303 0.041569,0.010108 0.050162,0.021729 0.00813,0.011113 0.00975,0.027288 0.00441,0.048006 -0.00534,0.020717 -0.015333,0.048511 -0.029941,0.08287 l -0.719226,1.69941 z m 2.26118,-1.26584 0,0 C 7.125158,2.71369 7.100174,2.809199 7.059115,2.892072 7.018561,2.974945 6.963484,3.044678 6.894385,3.101274 6.82525,3.158378 6.742685,3.201328 6.647115,3.231142 6.551083,3.260453 6.440109,3.275613 6.313777,3.275613 l -0.159681,0 -0.053145,0.611442 c -8.313e-4,0.0096 -0.00516,0.018698 -0.011883,0.026278 -0.00727,0.00809 -0.018453,0.014656 -0.033504,0.019201 -0.0156,0.00505 -0.035657,0.0091 -0.060681,0.012129 -0.024519,0.00303 -0.056487,0.00455 -0.094893,0.00455 -0.037391,0 -0.068592,-0.00152 -0.093594,-0.00455 C 5.781394,3.941633 5.761531,3.937593 5.747316,3.932534 5.733059,3.927984 5.723017,3.921419 5.71816,3.913333 5.71276,3.905753 5.71052,3.896655 5.71135,3.887055 L 5.861166,2.163395 C 5.865166,2.117414 5.880319,2.082544 5.906597,2.0593 5.93287,2.036053 5.965718,2.024429 6.005131,2.024429 l 0.451254,0 c 0.045477,0 0.088804,0.00152 0.129427,0.00505 0.040624,0.00354 0.088984,0.011122 0.145118,0.022239 0.056597,0.011622 0.112402,0.03234 0.168342,0.063165 0.056488,0.030318 0.103135,0.069226 0.140486,0.116224 0.037396,0.046489 0.063938,0.101571 0.08022,0.164228 0.016282,0.062662 0.021295,0.132903 0.014533,0.210722 z m -0.409751,0.028301 0,0 C 6.730597,2.567147 6.7237584,2.512068 6.703789,2.468611 6.683816,2.425151 6.657318,2.39281 6.624758,2.372092 6.592196,2.351375 6.556911,2.338742 6.519495,2.333182 6.481574,2.327622 6.442883,2.325102 6.402457,2.325102 l -0.165747,0 -0.056482,0.649846 0.174336,0 c 0.062155,0 0.11495,-0.00859 0.158343,-0.025267 C 6.556298,2.933008 6.592725,2.909253 6.622098,2.879438 6.651515,2.84912 6.674847,2.813242 6.692136,2.771301 6.709426,2.729363 6.720452,2.68388 6.724758,2.634362 z m 2.18698,1.16932 0,0 C 8.909757,3.826419 8.903957,3.846629 8.894796,3.864825 8.885176,3.882511 8.873288,3.897164 8.859141,3.908784 8.844442,3.920916 8.828031,3.929502 8.809356,3.935062 8.790726,3.940122 8.771763,3.943152 8.753067,3.943152 l -0.165747,0 c -0.034362,0 -0.064376,-0.00354 -0.088519,-0.010613 C 8.474103,3.925969 8.451958,3.913338 8.432312,3.895146 8.412672,3.876955 8.394106,3.852192 8.377119,3.820862 8.360095,3.790037 8.341372,3.749615 8.321422,3.700089 L 7.9222233,2.8046535 C 7.8995906,2.7510882 7.8762558,2.6939895 7.85281,2.6323395 7.829871,2.5706879 7.8093265,2.5105565 7.791637,2.4524435 l -0.00303,0 c -0.00211,0.070745 -0.00522,0.141491 -0.00935,0.212236 -0.00463,0.070745 -0.00995,0.143511 -0.016446,0.218302 l -0.087136,1.00256 c -8.363e-4,0.0096 -0.00415,0.018695 -0.01037,0.026273 -0.00576,0.00809 -0.015929,0.014654 -0.029551,0.020213 -0.014126,0.00556 -0.032165,0.0096 -0.055167,0.012635 -0.023004,0.00303 -0.052442,0.00455 -0.087816,0.00455 -0.034361,0 -0.063033,-0.00152 -0.085508,-0.00455 -0.022477,-0.00303 -0.039814,-0.00707 -0.052469,-0.012635 -0.012147,-0.00556 -0.020169,-0.012125 -0.024517,-0.020213 -0.0044,-0.00758 -0.00613,-0.016673 -0.0053,-0.026273 l 0.14968,-1.72215 c 0.004,-0.045981 0.02067,-0.080851 0.049978,-0.104095 0.028801,-0.023247 0.063165,-0.034871 0.102578,-0.034871 l 0.209207,0 c 0.037391,0 0.068459,0.00303 0.093659,0.00961 0.025201,0.00657 0.047019,0.017179 0.065959,0.031832 0.01894,0.014654 0.036339,0.035372 0.051744,0.061652 0.015444,0.025771 0.030825,0.058113 0.046186,0.096516 l 0.312559,0.700381 c 0.018041,0.042445 0.035619,0.084389 0.053285,0.125319 0.017666,0.040932 0.034829,0.081863 0.050975,0.122791 0.016151,0.040933 0.03184,0.081361 0.047112,0.120776 0.01527,0.039415 0.030035,0.078831 0.044295,0.118246 l 0.00152,0 c 0.00299,-0.06923 0.0072,-0.140984 0.012228,-0.216278 0.00498,-0.07479 0.010718,-0.146545 0.016602,-0.214258 l 0.078136,-0.89897 c 8.33e-4,-0.0096 0.00466,-0.018698 0.010918,-0.026784 0.00672,-0.00758 0.017443,-0.014652 0.031613,-0.020717 0.014129,-0.00556 0.032715,-0.010112 0.05563,-0.012129 0.022957,-0.00253 0.052403,-0.00405 0.087773,-0.00405 0.033854,0 0.061517,0.00152 0.084039,0.00405 0.02256,0.00202 0.039852,0.00657 0.051497,0.012129 0.012107,0.00606 0.020082,0.013139 0.023972,0.020717 0.00435,0.00809 0.00608,0.017181 0.00525,0.026784 l -0.149635,1.72164 z m -8.19119,-3.12541 0,0 c -0.0643161,0 -0.1165,0.0521858 -0.1165,0.116494 0,0.0643161 0.0521842,0.1165 0.1165,0.1165 0.0481071,0 0.0894212,-0.0292037 0.10719,-0.0708441 L 1.287384,0.9085027 1.222331,1.4127407 1.075874,1.5656497 0.554029,1.3528627 C 0.558504,1.3373107 0.5609,1.3208867 0.5609,1.3038997 c 0,-0.097668 -0.0792334,-0.176898 -0.176898,-0.176898 -0.0976764,0 -0.176907,0.07923 -0.176907,0.176898 0,0.080129 0.0533351,0.147832 0.126421,0.169572 l -0.0756432,0.581453 c -0.144493,0.012743 -0.257885,0.134127 -0.257885,0.281912 0,0.156281 0.126768,0.283047 0.283045,0.283047 0.156273,0 0.283039,-0.126766 0.283039,-0.283047 0,-0.0109 -6.1438e-4,-0.021662 -0.001815,-0.032243 l 0.548571,-0.043111 -0.086727,0.672181 c -0.018726,-0.00206 -0.037752,-0.00312 -0.0570297,-0.00312 -0.284468,0 -0.51518,0.230712 -0.51518,0.515175 0,0.284466 0.230712,0.51518 0.51518,0.51518 0.284461,0 0.515175,-0.230714 0.515175,-0.51518 0,-0.156312 -0.06968,-0.296384 -0.179644,-0.390873 l 0.552001,-0.851815 0.543574,-0.04272 0.289182,0.117919 0.112372,0.183259 -0.839226,1.15845 c -0.029308,-0.015901 -0.062884,-0.024928 -0.098567,-0.024928 -0.114347,0 -0.207106,0.092755 -0.207106,0.207102 0,0.114359 0.092758,0.207107 0.207106,0.207107 0.114359,0 0.207106,-0.092748 0.207106,-0.207107 l -6.6e-6,-9.671e-4 0.402872,-0.032077 c 0.038799,0.11933 0.150929,0.205635 0.283174,0.205635 0.164392,0 0.297714,-0.133324 0.297714,-0.297714 0,-0.054888 -0.014887,-0.106312 -0.040811,-0.150463 l 0.219655,-0.12463 c 0.034773,0.044032 0.088631,0.072303 0.149071,0.072303 0.104832,0 0.189847,-0.085023 0.189847,-0.189848 0,-0.055569 -0.023899,-0.105564 -0.061971,-0.140286 l 0.200586,-0.343412 c 0.018768,0.011241 0.040721,0.017711 0.064177,0.017711 0.069092,0 0.12513,-0.056036 0.12513,-0.125128 0,-0.069092 -0.056038,-0.125128 -0.12513,-0.125128 -0.043455,0 -0.081747,0.022172 -0.104178,0.055814 l -0.273132,-0.111373 0.00533,-0.431076 0.219088,-0.017219 c 0.027996,0.125355 0.139921,0.219083 0.273702,0.219083 0.154868,0 0.280457,-0.125587 0.280457,-0.280453 0,-0.154863 -0.125588,-0.280453 -0.280457,-0.280453 -0.154863,0 -0.280455,0.12559 -0.280455,0.280453 0,0.00373 9.28e-5,0.00743 2.385e-4,0.011115 l -0.211941,0.016658 0.00401,-0.324209 0.145172,-0.200397 c 0.049,0.027871 0.105687,0.043791 0.166073,0.043791 0.185839,0 0.336549,-0.15071 0.336549,-0.336547 0,-0.185839 -0.15071,-0.33654699 -0.336549,-0.33654699 -0.133572,0 -0.248984,0.0778606 -0.303336,0.19066799 L 3.41864,0.84775481 c 0.053552,-0.012382 0.093517,-0.0604029 0.093517,-0.117709 0,-0.0666892 -0.054122,-0.120808 -0.120806,-0.120808 -0.066697,0 -0.120819,0.0541184 -0.120819,0.120808 0,0.0586741 0.041885,0.107603 0.097373,0.118527 L 3.3639885,1.1649728 2.9661835,1.106052 3.0023491,0.66933701 c 0.130068,-0.006396 0.233665,-0.113977 0.233665,-0.245641 0,-0.135761 -0.110168,-0.245931 -0.245927,-0.245931 -0.135781,0 -0.245949,0.110169 -0.245949,0.245931 0,0.0741246 0.032832,0.14062 0.08474,0.18572 L 2.5472471,1.043999 1.9366021,0.9535577 1.8554241,0.8211667 2.3053981,0.3513487 c 0.028616,0.0210678 0.063958,0.0335226 0.102201,0.0335226 0.095272,0 0.172581,-0.0773075 0.172581,-0.172594 0,-0.0952719 -0.077309,-0.172579 -0.172581,-0.172579 -0.086984,0 -0.158977,0.0644353 -0.170865,0.14814 l -0.532119,0.042364 C 1.6660401,0.0972433 1.5433281,7.3e-6 1.3979551,7.3e-6 c -0.176302,0 -0.31929,0.142988 -0.31929,0.319285 0,0.0501986 0.011599,0.0976979 0.032254,0.139961 0,0 -0.31605603,0.245816 -0.31605603,0.245816 -0.0201702,-0.016734 -0.0460718,-0.0267992 -0.0743134,-0.0267992 z m 1.74247,3.04538 0,0 -0.397298,0.03163 C 2.055919,3.712935 2.033135,3.675564 2.001784,3.647575 L 2.795529,2.551915 2.726879,3.380791 C 2.576674,3.395932 2.459369,3.5228 2.459369,3.67699 c 0,0.015876 0.00125,0.031461 0.00365,0.046663 z m 0.749944,-0.354247 0,0 L 2.992346,3.49457 C 2.9418576,3.4295521 2.865009,3.3860143 2.777858,3.3799993 l 0.069857,-0.843517 0.386254,0.62991 c -0.025729,0.032396 -0.0411,0.073386 -0.0411,0.117956 0,0.030577 0.00724,0.059466 0.020092,0.085054 z m 0.475026,-0.586615 0,0 -0.2005,0.343253 C 3.4595617,3.1075211 3.426473,3.0961841 3.3908357,3.0946838 l 0.00653,-0.527747 0.254852,0.103923 c -0.00131,0.00725 -0.00199,0.01474 -0.00199,0.022374 0,0.035102 0.014469,0.06683 0.03776,0.089554 z m -0.331578,-1.00511 0,0 -0.00318,0.256961 -0.194021,0.015247 0.197201,-0.272208 z m -0.00381,0.307778 0,0 L 3.347579,2.491961 2.954939,2.33186 3.120214,2.10372 3.352603,2.085456 z m -0.0057,0.460896 0,0 -0.00684,0.552955 C 3.314922,3.105086 3.291697,3.11585 3.27147,3.13051 L 2.861144,2.461327 2.924366,2.374055 3.346898,2.546351 z m 0.016459,-1.33037 0,0 L 3.357438,1.694392 3.096323,2.054826 2.886235,2.07134 2.961999,1.156536 3.363356,1.215982 z m 0.045686,0.407176 0,0 0.00336,-0.271536 C 3.435176,1.40204 3.47,1.445853 3.51321,1.479372 L 3.409045,1.623157 z m -0.457385,-0.956508 0,0 -0.035773,0.431944 -0.313484,-0.04643 c 0,0 0.26802,-0.41359 0.26802,-0.41359 0.024766,0.0138277 0.052153,0.0235054 0.081237,0.028076 z m -0.069655,1.45579 0,0 L 3.057326,2.108663 2.909156,2.313195 2.867612,2.296251 2.882004,2.12244 z m -0.018772,0.226689 0,0 0.015356,0.00626 -0.017926,0.024744 0.00257,-0.031004 z m -0.053289,0.028702 0,0 L 2.76871,2.310584 2.813982,2.329045 2.809942,2.377829 z m 0.00842,-0.101659 0,0 L 2.724022,2.237702 2.663858,2.139583 2.830764,2.126467 2.818364,2.27617 z m 0.016633,-0.200803 0,0 L 2.63416,2.091148 2.291378,1.532126 2.572188,1.0988 2.911711,1.149088 2.834996,2.075369 z m -0.539198,0.042374 0,0 -0.404522,0.031792 0.100846,-0.155622 0.303676,0.12383 z m -1.17635,0.09245 0,0 -0.56549896,0.044439 c -0.00551,-0.01817 -0.012796,-0.035568 -0.0216606,-0.05199 L 1.0860614,1.624449 1.1895754,1.666661 1.1194484,2.210193 z m 1.48764,-0.066148 0,0 0.037588,0.061299 -0.132111,-0.053868 0.094523,-0.00743 z m -0.814169,0.063985 0,0 -0.528517,0.815575 C 1.208742,2.984577 1.145012,2.956274 1.076225,2.941708 L 1.164515,2.257415 1.792919,2.208029 z m -0.621789,-0.0019 0,0 0.067045,-0.5196521 0.706134,0.287945 -0.116724,0.180119 -0.656455,0.051588 z m 1.23705,-0.097216 0,0 L 2.020141,1.9506879 2.260801,1.5793129 2.57739,2.095615 2.408181,2.108913 z m -0.437105,-1.0991501 0,0 0.545958,0.080863 L 2.261989,1.4841949 1.971075,1.009763 z m -0.677213,-0.15141195 0,0 -0.45688596,-0.0676712 c -7.0049e-4,-0.0202994 -0.006604,-0.0392772 -0.0164094,-0.0556519 l 0.31005296,-0.241158 c 0.043926,0.0671098 0.11244,0.116687 0.192731,0.13592 l -0.029489,0.228561 z m 0.577288,0.0855047 0,0 -0.116681,-0.0172838 0.064677,-0.0675304 0.052004,0.0848142 z m -0.174918,-0.0259099 0,0 -0.352175,-0.0521593 0.029436,-0.228135 c 0.00807,6.1438e-4 0.016239,9.224e-4 0.024468,9.224e-4 0.089063,0 0.169608,-0.0365034 0.227531,-0.0953464 l 0.167697,0.273483 -0.096956,0.101235 z m -0.358642,-0.00201 0,0 0.315771,0.046769 L 1.281453,1.3510127 1.33759,0.91593575 z m 0.37401,0.0553935 0,0 L 1.905621,1.000069 2.231411,1.53138 1.972322,1.9311852 1.244875,1.6345562 1.271103,1.4312512 1.7116,0.9713293 z m 0.00267,-0.69562 0,0 0.522115,-0.0415708 c 0.00395,0.0312572 0.016282,0.0599128 0.034659,0.083655 l -0.441567,0.461036 -0.169719,-0.276782 c 0.036225,-0.0517784 0.05749,-0.114791 0.05749,-0.182762 0,-0.0147832 -0.00103,-0.029323 -0.00298,-0.0435762 z m -0.676028,1.32923995 0,0 -0.53305003,0.5565501 c -0.0472625,-0.059789 -0.11813,-0.1000641 -0.198521,-0.106715 l 0.0746811,-0.574016 c 8.8596e-4,9.9e-6 0.00177,3.14e-5 0.002658,3.14e-5 0.0626634,0 0.117744,-0.032622 0.14917,-0.081804 l 0.50506103,0.205953 z m 0.085467,-0.019799 0,0 0.088275,-0.092173 -0.015709,0.121761 -0.072566,-0.029588 z m -0.66873803,-0.426919 0,0 c 0.0483886,0.023875 0.0790148,0.06842 0.0844532,0.11494 -0.0509703,-0.084079 -0.125885,-0.122866 -0.227067,-0.111885 0.0401947,-0.024049 0.0941922,-0.02691 0.142614,-0.00306 z M 1.526021,0.05639125 l 0,0 c 0.087378,0.0430712 0.142637,0.123469 0.152439,0.207442 -0.091985,-0.151765 -0.227176,-0.221763 -0.409809,-0.201962 0.07256,-0.0433841 0.170001,-0.0485393 0.25737,-0.0054797 z m 0.950813,0.0137631 0,0 c 0.047209,0.023305 0.077082,0.0667604 0.082381,0.112158 -0.049712,-0.0820387 -0.122816,-0.119888 -0.221519,-0.109169 0.039208,-0.0234508 0.091889,-0.026256 0.139138,-0.0029891 z m 0.611909,0.151016 0,0 c 0.067277,0.0332146 0.109843,0.0951344 0.117395,0.159826 -0.070839,-0.116903 -0.175012,-0.170837 -0.315662,-0.155564 0.055867,-0.0334183 0.130939,-0.0374159 0.198267,-0.004263 z m 0.351072,0.40938 0,0 c 0.033049,0.0163233 0.053953,0.0467359 0.057662,0.078518 -0.034789,-0.0574254 -0.08597,-0.0839282 -0.155059,-0.0764248 0.027442,-0.0164094 0.064319,-0.0183784 0.097397,-0.002093 z m 0.41444,0.305636 0,0 C 3.762158,0.89079675 3.659465,0.89622685 3.582977,0.94194435 3.775483,0.92108195 3.917973,0.99486875 4.014935,1.1548324 4.004603,1.0663274 3.946351,0.98157735 3.854254,0.93618635 z m 0.154405,0.83577495 0,0 C 3.931911,1.7341343 3.846333,1.7386573 3.7826,1.7767613 3.943016,1.7593733 4.061755,1.8208643 4.142565,1.9541683 4.133955,1.8804163 4.085404,1.8097903 4.00866,1.7719663 z m -0.183112,0.818241 0,0 c 0.034245,0.016878 0.055894,0.048389 0.059734,0.081297 -0.036043,-0.059476 -0.089025,-0.086914 -0.160596,-0.079151 0.028432,-0.016997 0.066616,-0.019027 0.100863,-0.00215 z m -0.366675,0.537824 0,0 c 0.051954,0.02561 0.084804,0.073418 0.09063,0.12335 C 3.494815,3.1611353 3.414426,3.1195013 3.305836,3.1312893 3.34898,3.1054933 3.406911,3.1024183 3.458873,3.1280293 z m -0.582364,0.3038251 0,0 C 2.957985,3.4720094 3.0095,3.5469784 3.018633,3.6252804 2.93288,3.4837674 2.80681,3.4184814 2.636524,3.4369674 2.70418,3.3965164 2.795026,3.3916884 2.87651,3.4318474 z m -0.929483,0.199731 0,0 c 0.056679,0.027942 0.092508,0.080091 0.098865,0.134561 -0.059659,-0.098443 -0.147357,-0.143859 -0.265826,-0.131 0.04707,-0.028142 0.110274,-0.031497 0.166961,-0.00356 z m -0.771316,-0.610057 0,0 c 0.140984,0.069496 0.230151,0.199223 0.245967,0.334711 C 1.273252,3.1113624 1.055118,2.9984154 0.76043397,3.0303684 0.87751397,2.9603604 1.034737,2.9520524 1.17571,3.0215284 z m -0.77914103,-0.917747 0,0 c 0.0774433,0.038193 0.126438,0.109462 0.135129,0.183897 -0.0815353,-0.134529 -0.201396,-0.196583 -0.363299,-0.179026 0.064326,-0.038461 0.15071,-0.043041 0.22817,-0.00487 z m 0.370716,-1.40495005 0,0 c 0.0318666,0.0157321 0.0520302,0.04506 0.0556071,0.0757045 -0.0335557,-0.0553736 -0.0829015,-0.0809226 -0.149526,-0.0736875 0.026468,-0.0158331 0.0620258,-0.0177259 0.0939189,-0.002017 z"
   class="fil0"
   inkscape:connector-curvature="0"
   style="fill:#0a0b0c" />

 </g>
      </g>
    </g>
  </g>
</svg>
