<?xml version="1.0" encoding="UTF-8" standalone="no"?>
<!-- Created with Inkscape (http://www.inkscape.org/) -->

<svg
   xmlns:dc="http://purl.org/dc/elements/1.1/"
   xmlns:cc="http://creativecommons.org/ns#"
   xmlns:rdf="http://www.w3.org/1999/02/22-rdf-syntax-ns#"
   xmlns:svg="http://www.w3.org/2000/svg"
   xmlns="http://www.w3.org/2000/svg"
   xmlns:sodipodi="http://sodipodi.sourceforge.net/DTD/sodipodi-0.dtd"
   xmlns:inkscape="http://www.inkscape.org/namespaces/inkscape"
   width="210mm"
   height="210mm"
   id="svg2"
   version="1.1"
   inkscape:version="0.48.2 r9819"
   sodipodi:docname="librevpnlogo.svg">
  <defs
     id="defs4">
 <style
   id="style3786"
   type="text/css">
   
    .fil0 {fill:#0A0B0C}
    .fil1 {fill:#CCFF66;fill-rule:nonzero}
   
  </style>

  
 <style
   id="style3861"
   type="text/css">
   
    .fil1 {fill:#0A0B0C}
    .fil0 {fill:#1E2124}
    .fil3 {fill:#CCFF66}
    .fil4 {fill:#FFCC00}
    .fil2 {fill:white}
   
  </style>

  
 <style
   id="style3992"
   type="text/css">
   
    .fil1 {fill:#0A0B0C}
    .fil0 {fill:#1E2124}
    .fil2 {fill:#FFCC00;fill-rule:nonzero}
   
  </style>

  
 <style
   id="style4087"
   type="text/css">
   
    .str0 {stroke:white;stroke-width:0.000386873}
    .fil1 {fill:#34528C}
    .fil4 {fill:#556EA6}
    .fil5 {fill:#748BBD}
    .fil6 {fill:#95AED3}
    .fil3 {fill:#DEE1E6}
    .fil0 {fill:#EDF1FA}
    .fil2 {fill:white}
   
  </style>

  
  
  
  
 
   
   
   
   
   
   
   
   
   
  
 <style
   id="style4331"
   type="text/css">
   
    .fil0 {fill:#0A0B0C}
   
  </style>

  
  
  
 </defs>
  <sodipodi:namedview
     id="base"
     pagecolor="#ffffff"
     bordercolor="#666666"
     borderopacity="1.0"
     inkscape:pageopacity="0.0"
     inkscape:pageshadow="2"
     inkscape:zoom="0.34491508"
     inkscape:cx="1458.1512"
     inkscape:cy="211.64129"
     inkscape:document-units="px"
     inkscape:current-layer="g4342"
     showgrid="false"
     inkscape:window-width="1920"
     inkscape:window-height="1033"
     inkscape:window-x="-4"
     inkscape:window-y="-4"
     inkscape:window-maximized="1" />
  <metadata
     id="metadata7">
    <rdf:RDF>
      <cc:Work
         rdf:about="">
        <dc:format>image/svg+xml</dc:format>
        <dc:type
           rdf:resource="http://purl.org/dc/dcmitype/StillImage" />
        <dc:title></dc:title>
      </cc:Work>
    </rdf:RDF>
  </metadata>
  <g
     inkscape:label="Capa 1"
     inkscape:groupmode="layer"
     id="layer1">
    <g
       style="font-size:58.46593475px;font-style:normal;font-variant:normal;font-weight:bold;font-stretch:normal;text-align:center;line-height:125%;letter-spacing:0px;word-spacing:0px;text-anchor:middle;fill:#000000;fill-opacity:1;stroke:none;font-family:Klavika Bd;-inkscape-font-specification:Klavika Bd Bold"
       id="text4053">
      <g
         style="fill-rule:evenodd"
         id="g4342"
         transform="matrix(78.01176,0,0,78.01176,13.429331,23.305283)">
        <path
           id="path4335"
           style="fill:#0a0b0c"
           d="m 1.6821775,1.5320728 0,0 c 0.069863,0.03449 0.1140687,0.098788 0.1219106,0.1659713 C 1.730522,1.5766454 1.6223384,1.5206329 1.4762737,1.5364948 1.534301,1.501783 1.6122564,1.4976333 1.6821775,1.5320728 z m -0.81274203,3.0801527 0,0 C 1.0392189,4.6959582 1.1466328,4.8522053 1.1656865,5.0153935 0.98693202,4.7204578 0.72415452,4.5844133 0.36920528,4.6229045 0.51023086,4.5385842 0.69961547,4.5285432 0.86943547,4.6122277 z m 1.70815563,2.0120295 0,0 C 2.8866784,6.776615 3.0821644,7.061023 3.1168387,7.3580611 2.791438,6.8212098 2.3132103,6.5735896 1.6671576,6.643642 1.9238388,6.4901594 2.2685279,6.4719453 2.5775911,6.6242615 z m 1.6910004,1.337463 0,0 C 4.3928521,8.0229768 4.4714021,8.1373061 4.4853389,8.2567238 4.354545,8.0409015 4.1622797,7.9413334 3.9025533,7.9695249 c 0.1031942,-0.061697 0.24176,-0.069053 0.3660382,-0.0078 z m 2.0377589,-0.4378818 0,0 C 6.4849749,7.6118769 6.5979142,7.7762357 6.617937,7.9479017 6.4299358,7.6376546 6.1535453,7.4945244 5.7802175,7.5350523 5.9285437,7.4463693 6.1277106,7.4357846 6.3063526,7.5238274 z m 1.2767501,-0.6660932 0,0 C 7.6970022,6.9138893 7.7690211,7.0187015 7.7817938,7.1281703 7.6618982,6.9303298 7.4856568,6.8390531 7.2475887,6.8648967 c 0.094587,-0.056554 0.2215925,-0.063296 0.3355118,-0.00715 z m 0.8038826,-1.1791024 0,0 c 0.075077,0.037003 0.1225397,0.1060859 0.1309583,0.178232 C 8.4389223,5.72648 8.3227668,5.6663261 8.1658576,5.6833454 c 0.062333,-0.037263 0.1460461,-0.041714 0.2211277,-0.00471 z m 0.401447,-1.7938768 0,0 C 8.6201688,3.8018335 8.4325513,3.8117495 8.2928258,3.8952871 8.644515,3.8571664 8.9048333,3.9919767 9.0819977,4.2842267 9.0631215,4.1225359 8.9566804,3.9676985 8.7884301,3.8847748 z m -0.338511,-1.8323174 0,0 C 8.2480096,1.9529362 8.0228698,1.9648409 7.8551808,2.06507 8.2772228,2.0193322 8.5896118,2.1810992 8.8021871,2.5317967 8.7795357,2.3377621 8.6518265,2.1519597 8.4499169,2.0524464 z M 7.5413185,1.382383 l 0,0 c 0.072455,0.035787 0.1182843,0.1024618 0.1264157,0.1721396 -0.07627,-0.125897 -0.1884769,-0.1840007 -0.3399447,-0.1675505 0.060163,-0.035975 0.1410102,-0.040292 0.213529,-0.00459 z m -0.7696753,-0.89750724 0,0 C 6.9191384,0.55769403 7.0124583,0.69344436 7.029015,0.83527147 6.8737106,0.57897831 6.6453262,0.46073571 6.3369711,0.49421958 6.4594515,0.42095473 6.6240362,0.41219056 6.7716432,0.48487356 z M 5.43012,0.15379471 l 0,0 C 5.533619,0.2048876 5.5991113,0.30015737 5.6107286,0.39968513 5.5017421,0.21982698 5.341472,0.13684778 5.1250797,0.16034766 5.2110377,0.10893513 5.3265333,0.10278513 5.43012,0.15379449 z m -2.084522,-0.0301736 0,0 C 3.5371618,0.21804854 3.6583093,0.39430925 3.6797988,0.57840808 3.4781348,0.24568496 3.1817478,0.09222432 2.781351,0.13563519 2.9404284,0.04052174 3.1540539,0.0292197 3.345598,0.12362173 z m -2.34812447,2.41562703 0,0 C 1.1035586,2.5915906 1.1707022,2.6892492 1.1826251,2.7912376 1.07088,2.6069064 0.90664022,2.5218714 0.68481311,2.5459457 c 0.0881211,-0.052724 0.20650297,-0.058996 0.31266086,-0.00671 z m 1.46611277,0.935959 0,0 0.1935304,-0.2020761 -0.03444,0.2669436 -0.1590906,-0.064868 z m -0.1873742,0.043407 0,0 -1.1686362,1.2201567 C 1.0039596,4.6076915 0.84859273,4.5193941 0.67234693,4.5048129 L 0.83607459,3.2463647 c 0.001942,2.17e-5 0.00388,6.88e-5 0.005827,6.88e-5 0.13738057,0 0.25813692,-0.071519 0.32703392,-0.1793436 l 1.1072743,0.4515226 z m 1.482095,-2.91416908 0,0 1.1446627,-0.0911381 c 0.00866,0.068527 0.035696,0.13135027 0.075985,0.18340166 L 4.010882,1.7074638 3.6387973,1.1006588 C 3.7182155,0.98714199 3.764836,0.84899585 3.764836,0.69997912 c 0,-0.03241 -0.00226,-0.0642865 -0.00653,-0.0955346 z m -0.00585,1.52504768 0,0 L 4.1778169,2.1925 4.892065,3.3573236 4.3240493,4.2338395 2.7292255,3.5835227 2.7867267,3.1378055 3.7524535,2.1294923 z m -0.8199636,-0.1214424 0,0 L 3.6247728,2.1105842 2.8094176,2.961894 2.9324899,2.0080498 z m 0.7862715,0.00441 0,0 -0.7720935,-0.1143518 0.064534,-0.5001535 c 0.017692,0.00135 0.035602,0.00202 0.053643,0.00202 0.195258,0 0.3718414,-0.080028 0.4988293,-0.2090334 L 3.9313258,1.7905125 3.7187636,2.0124558 z m 0.3834828,0.056804 0,0 -0.2558065,-0.037892 0.1417951,-0.1480508 0.1140114,0.185943 z m -1.2656217,-0.1874568 0,0 -1.0016573,-0.1483595 c -0.00154,-0.044504 -0.014478,-0.08611 -0.035975,-0.1220088 L 2.4787368,1.0827305 c 0.096302,0.1471287 0.2465087,0.2558196 0.4225353,0.2979853 l -0.06465,0.5010874 z m 1.484693,0.3319491 0,0 1.196935,0.1772806 L 4.9591029,3.253877 4.3213155,2.2137527 z m 0.9582904,2.4097299 0,0 -0.8507202,-0.346886 0.5276127,-0.8141867 0.6940763,1.1319187 -0.3709666,0.029154 z m -2.7120558,0.2131322 0,0 L 2.7145367,3.6973515 4.2626348,4.3286298 4.0067341,4.723515 2.5675501,4.8366144 z m 1.3631837,0.00417 0,0 L 2.7720357,6.628812 C 2.6500091,6.5432509 2.5102901,6.4812006 2.3594844,6.4492667 L 2.5530477,4.9490518 3.9307338,4.8407801 z m 1.7849495,-0.140278 0,0 0.082406,0.1343893 -0.2896345,-0.1180979 0.2072282,-0.016289 z m -3.2614386,0.14502 0,0 -1.2397759,0.097426 C 1.202389,4.9031132 1.1864154,4.8649706 1.1669811,4.8289677 L 2.3810493,3.5613641 2.607989,3.6539079 2.4542456,4.8455243 z m 2.5789797,-0.2026834 0,0 -0.8868569,0.069699 0.2210905,-0.341179 0.6657664,0.2714796 z m 1.1821147,-0.092899 0,0 L 5.7750348,4.5845352 5.0235341,3.3589591 5.63917,2.4089536 6.3835258,2.5192029 6.2153391,4.5499419 z m -0.036465,0.4402319 0,0 L 5.9720444,4.9058339 5.8401434,4.690722 6.206061,4.661967 6.1788758,4.9901695 z m -0.01846,0.2228729 0,0 -0.090397,-0.1474273 0.099252,0.040473 -0.00886,0.106952 z m 0.1168285,-0.062925 0,0 0.033666,0.013724 -0.0393,0.054248 0.00563,-0.067972 z m 0.041155,-0.4969833 0,0 0.3843685,-0.030202 -0.3248416,0.4484072 -0.091079,-0.037147 0.031552,-0.3810558 z m 0.1527087,-3.191612 0,0 -0.078427,0.9469756 -0.687269,-0.1017911 c 0,0 0.5875956,-0.9067371 0.5875956,-0.9067371 0.054296,0.030315 0.1143381,0.051532 0.1781006,0.061553 z m 1.0027514,2.0970074 0,0 0.00737,-0.595304 c 0.049924,0.1105365 0.126271,0.2065903 0.2210028,0.2800759 L 7.4738597,3.5585316 z m -0.1001601,-0.8926753 0,0 -0.012979,1.0488479 -0.5724574,0.7902001 -0.460588,0.036205 0.1661018,-2.0055773 0.879918,0.1303269 z m -0.036084,2.9166465 0,0 -0.014996,1.212275 c -0.055109,0.012672 -0.1060268,0.03627 -0.1503716,0.06841 L 6.2726649,5.3960998 6.4112701,5.2047684 7.3376112,5.5825028 z m 0.012496,-1.0104487 0,0 L 7.3391042,5.4632605 6.478297,5.1122619 6.8406389,4.6120975 7.3501186,4.5720563 z m 0.00835,-0.6747594 0,0 -0.00697,0.5633503 -0.4253634,0.033427 0.4323351,-0.5967772 z m 0.7269374,2.2035604 0,0 -0.4395676,0.7525332 c -0.061222,-0.0406 -0.1337645,-0.065455 -0.2118942,-0.068744 l 0.014316,-1.15701 0.5587267,0.2278363 c -0.00287,0.015895 -0.00436,0.032315 -0.00436,0.049052 0,0.076956 0.031721,0.1465153 0.082783,0.1963344 z m -1.0414267,1.2860697 0,0 -0.483667,0.274413 C 6.4496179,7.5187953 6.2811383,7.4233449 6.0900722,7.4101579 L 6.2432237,5.5608671 7.0900305,6.941855 c -0.056407,0.071024 -0.090106,0.1608883 -0.090106,0.2586017 0,0.067036 0.015873,0.1303707 0.044049,0.1864688 z m -1.6441453,0.776636 0,0 -0.8710193,0.069344 C 4.5073238,8.1400719 4.4573732,8.0581413 4.3886406,7.9967794 L 6.1288133,5.5947011 5.978308,7.4118936 c -0.3293031,0.033194 -0.5864776,0.3113345 -0.5864776,0.649374 0,0.034806 0.00274,0.068974 0.008,0.102302 z m -3.8201171,-6.6765614 0,0 c -0.1410039,0 -0.2554096,0.1144099 -0.2554096,0.2553965 0,0.1410038 0.1144064,0.2554096 0.2554096,0.2554096 0.105468,0 0.1960432,-0.064025 0.2349988,-0.1553156 L 2.8224204,1.9917539 2.679801,3.0972239 2.3587149,3.432455 1.2146441,2.9659499 c 0.00981,-0.034096 0.015064,-0.070103 0.015064,-0.1073444 0,-0.2141232 -0.1737079,-0.3878237 -0.38782362,-0.3878237 -0.21414158,0 -0.38784337,0.1737005 -0.38784337,0.3878237 0,0.1756714 0.1169296,0.3241006 0.27716002,0.3717624 L 0.5653639,4.5051207 C 0.24858359,4.5330579 -1.22e-5,4.7991751 -1.22e-5,5.1231726 c 0,0.3426238 0.27792077,0.6205402 0.62053581,0.6205402 0.34260627,0 0.62052269,-0.2779164 0.62052269,-0.6205402 0,-0.023897 -0.00135,-0.047491 -0.00398,-0.070688 l 1.2026637,-0.094515 -0.1901365,1.473661 c -0.041054,-0.00452 -0.082766,-0.00684 -0.1250295,-0.00684 -0.6236556,0 -1.12945873,0.5058031 -1.12945873,1.1294477 0,0.6236511 0.50580313,1.1294587 1.12945873,1.1294587 0.6236402,0 1.1294477,-0.5058076 1.1294477,-1.1294587 0,-0.3426918 -0.1527635,-0.6497797 -0.3938438,-0.8569333 L 4.0703521,4.829822 5.2620606,4.7361645 5.896051,4.9946851 6.1424105,5.3964543 4.3025272,7.9361908 C 4.2382736,7.9013301 4.164663,7.8815397 4.0864331,7.8815397 c -0.2506895,0 -0.4540504,0.2033521 -0.4540504,0.4540416 0,0.2507158 0.2033587,0.4540526 0.4540504,0.4540526 0.2507158,0 0.4540504,-0.2033368 0.4540504,-0.4540526 l -1.45e-5,-0.00212 0.8832394,-0.070324 c 0.085061,0.2616141 0.3308903,0.4508255 0.6208186,0.4508255 0.3604061,0 0.6526955,-0.2922939 0.6526955,-0.6526955 0,-0.1203341 -0.032638,-0.2330739 -0.089472,-0.3298687 L 7.0893125,7.4581646 c 0.076235,0.096534 0.1943108,0.158514 0.3268169,0.158514 0.2298292,0 0.4162125,-0.1864008 0.4162125,-0.4162147 0,-0.1218271 -0.052395,-0.231434 -0.1358626,-0.307557 L 8.1362355,6.140025 c 0.041146,0.024644 0.089275,0.038829 0.140699,0.038829 0.1514743,0 0.2743296,-0.122851 0.2743296,-0.2743253 0,-0.1514744 -0.1228553,-0.2743253 -0.2743296,-0.2743253 -0.095269,0 -0.1792187,0.048609 -0.2283955,0.1223642 L 7.4497361,5.5083981 7.4614213,4.5633254 7.9417405,4.5255752 c 0.061377,0.274823 0.3067569,0.4803082 0.6000527,0.4803082 0.339526,0 0.6148619,-0.2753315 0.6148619,-0.6148532 0,-0.339515 -0.2753337,-0.6148532 -0.6148619,-0.6148532 -0.3395151,0 -0.6148576,0.2753382 -0.6148576,0.6148532 0,0.00818 2.034e-4,0.016289 5.228e-4,0.024368 l -0.4646504,0.03652 0.00879,-0.710782 0.3182689,-0.4393419 c 0.1074255,0.061103 0.2317037,0.096005 0.3640914,0.096005 0.4074255,0 0.7378357,-0.3304102 0.7378357,-0.7378313 0,-0.4074255 -0.3304102,-0.7378313 -0.7378357,-0.7378313 -0.2928376,0 -0.545862,0.1706983 -0.665021,0.4180124 l 0.00596,-0.4815771 C 7.6123005,1.8314271 7.699918,1.7261481 7.699918,1.6005127 c 0,-0.1462066 -0.1186547,-0.2648544 -0.2648499,-0.2648544 -0.1462237,0 -0.2648784,0.1186469 -0.2648784,0.2648544 0,0.1286346 0.091827,0.2359042 0.2134764,0.2598535 L 7.3750797,2.5540281 6.502949,2.4248526 6.5822369,1.4674173 c 0.2851556,-0.014022 0.5122772,-0.2498784 0.5122772,-0.53853291 0,-0.29763664 -0.2415276,-0.53916865 -0.5391599,-0.53916865 -0.2976805,0 -0.5392081,0.24152982 -0.5392081,0.53916865 0,0.16250761 0.071979,0.30828931 0.1857804,0.40716461 L 5.5844907,2.2888103 4.2457386,2.0905306 4.0677674,1.8002822 5.0542712,0.77027323 c 0.062737,0.0461881 0.1402188,0.0734935 0.2240611,0.0734935 0.2088703,0 0.3783593,-0.16948567 0.3783593,-0.37838774 0,-0.20887006 -0.169489,-0.37835485 -0.3783593,-0.37835485 -0.1907,0 -0.3485344,0.14126521 -0.3745971,0.32477583 l -1.1665951,0.092877 C 3.6525699,0.21318337 3.3835414,7.3e-6 3.0648318,7.3e-6 c -0.386517,0 -0.6999978,0.3134808 -0.6999978,0.69998684 0,0.11005328 0.025429,0.21418872 0.070712,0.30684456 0,0 -0.6929078,0.5389165 -0.6929078,0.5389165 -0.04422,-0.036687 -0.1010058,-0.058753 -0.1629215,-0.058753 z"
           inkscape:connector-curvature="0" />
      </g>
    </g>
  </g>
</svg>
